HIERARCHY
ROOT Pelvis
{
	OFFSET 0.000000 0.941512 0.000000
	CHANNELS 6 Xposition Yposition Zposition Zrotation Yrotation Xrotation 
	JOINT Pelvis_L_Hip
	{
		OFFSET 0.000000 0.000000 0.000000
		CHANNELS 3 Zrotation Yrotation Xrotation
		JOINT L_Hip
		{
			OFFSET 0.062321 -0.080322 -0.016990
			CHANNELS 3 Zrotation Yrotation Xrotation
			JOINT L_Knee
			{
				OFFSET 0.093051 -0.381305 -0.029784
				CHANNELS 3 Zrotation Yrotation Xrotation
				JOINT L_Ankle
				{
					OFFSET -0.010371 -0.431000 -0.033614
					CHANNELS 3 Zrotation Yrotation Xrotation
					End Site #name: L_Foot
					{
						OFFSET 0.069299 -0.038670 0.119418
					}
				}
			}
		}
	}
	JOINT Pelvis_R_Hip
	{
		OFFSET 0.000000 0.000000 0.000000
		CHANNELS 3 Zrotation Yrotation Xrotation
		JOINT R_Hip
		{
			OFFSET -0.055334 -0.094904 -0.002373
			CHANNELS 3 Zrotation Yrotation Xrotation
			JOINT R_Knee
			{
				OFFSET -0.064207 -0.384370 -0.019592
				CHANNELS 3 Zrotation Yrotation Xrotation
				JOINT R_Ankle
				{
					OFFSET 0.025418 -0.419734 -0.065953
					CHANNELS 3 Zrotation Yrotation Xrotation
					End Site #name: R_Foot
					{
						OFFSET -0.057233 -0.039888 0.132134
					}
				}
			}
		}
	}
	JOINT Pelvis_Spine1
	{
		OFFSET 0.000000 0.000000 0.000000
		CHANNELS 3 Zrotation Yrotation Xrotation
		JOINT Spine1
		{
			OFFSET -0.005562 0.124093 -0.043360
			CHANNELS 3 Zrotation Yrotation Xrotation
			JOINT Spine2
			{
				OFFSET 0.012244 0.139499 0.029894
				CHANNELS 3 Zrotation Yrotation Xrotation
				JOINT Spine3
				{
					OFFSET -0.002556 0.056561 0.009225
					CHANNELS 3 Zrotation Yrotation Xrotation
					JOINT Spine3_Neck
					{
						OFFSET 0.000000 0.000000 0.000000
						CHANNELS 3 Zrotation Yrotation Xrotation
						JOINT Neck
						{
							OFFSET -0.005205 0.217920 -0.024551
							CHANNELS 3 Zrotation Yrotation Xrotation
							End Site #name: Head
							{
								OFFSET 0.002365 0.091850 0.046637
							}
						}
					}
					JOINT Spine3_L_Collar
					{
						OFFSET 0.000000 0.000000 0.000000
						CHANNELS 3 Zrotation Yrotation Xrotation
						JOINT L_Collar
						{
							OFFSET 0.072225 0.116603 -0.009480
							CHANNELS 3 Zrotation Yrotation Xrotation
							JOINT L_Shoulder
							{
								OFFSET 0.115937 -0.058643 -0.021018
								CHANNELS 3 Zrotation Yrotation Xrotation
								JOINT L_Elbow
								{
									OFFSET 0.021994 -0.254722 -0.024492
									CHANNELS 3 Zrotation Yrotation Xrotation
									End Site #name: L_Wrist
									{
										OFFSET 0.048810 -0.240214 0.103329
									}
								}
							}
						}
					}
					JOINT Spine3_R_Collar
					{
						OFFSET 0.000000 0.000000 0.000000
						CHANNELS 3 Zrotation Yrotation Xrotation
						JOINT R_Collar
						{
							OFFSET -0.073372 0.120704 -0.024611
							CHANNELS 3 Zrotation Yrotation Xrotation
							JOINT R_Shoulder
							{
								OFFSET -0.108089 -0.054969 -0.020504
								CHANNELS 3 Zrotation Yrotation Xrotation
								JOINT R_Elbow
								{
									OFFSET -0.033684 -0.260739 0.009889
									CHANNELS 3 Zrotation Yrotation Xrotation
									End Site #name: R_Wrist
									{
										OFFSET -0.067980 -0.232763 0.118463
									}
								}
							}
						}
					}
				}
			}
		}
	}
}
MOTION
Frames: 11
Frame Time: 0.041667
-0.021338 0.926768 -0.134232 -6.722673 12.215265 11.319213 0.000000 0.000000 0.000000 17.124055 -4.772833 -28.371456 -9.204317 1.299199 15.674690 6.554336 21.018360 3.045685 0.000000 0.000000 0.000000 -7.185175 3.134394 -33.634784 8.989164 -2.307283 16.020113 2.527175 -4.543426 11.133397 0.000000 0.000000 0.000000 5.440267 -3.726220 13.510289 3.057368 -0.535386 -0.476404 6.023304 8.188316 6.627982 0.000000 0.000000 0.000000 -12.258405 6.509670 10.378279 0.000000 0.000000 0.000000 33.656785 -8.887356 2.545308 -31.611903 6.695154 7.287087 0.796262 -3.403091 -17.832806 0.000000 0.000000 0.000000 -45.331014 20.602188 -18.638865 21.698696 -1.652808 8.154430 -17.630591 2.825276 -69.187473 
-0.022957 0.918973 -0.156119 -6.803025 11.985466 13.925880 0.000000 0.000000 0.000000 18.933294 -5.044747 -33.463494 -10.964208 1.770910 17.148865 7.121363 22.998052 3.810422 0.000000 0.000000 0.000000 -8.402382 3.116994 -38.993575 9.924612 -2.709043 17.668353 2.396623 -5.437916 11.653649 0.000000 0.000000 0.000000 4.090371 -4.011239 17.511692 2.862165 -0.491754 -0.119712 6.854433 9.119522 5.504811 0.000000 0.000000 0.000000 -11.697472 6.087026 8.406383 0.000000 0.000000 0.000000 33.938040 -9.166019 2.350942 -31.698328 6.420414 6.678019 0.821481 -3.712088 -19.224965 0.000000 0.000000 0.000000 -46.853704 22.985873 -22.005850 20.394323 -1.148392 6.794406 -18.455777 0.212670 -64.685003 
-0.023531 0.908972 -0.177443 -6.841738 11.872929 16.719830 0.000000 0.000000 0.000000 21.115801 -5.105450 -38.863920 -13.177352 2.412544 18.646743 7.868306 25.138521 4.479441 0.000000 0.000000 0.000000 -9.934889 2.848246 -44.628744 11.099509 -3.249670 19.525080 2.164374 -6.544042 12.159654 0.000000 0.000000 0.000000 2.710660 -4.284744 21.887373 2.608652 -0.447460 -0.182818 7.510653 10.174259 4.251031 0.000000 0.000000 0.000000 -10.948426 5.546032 5.487910 0.000000 0.000000 0.000000 34.193238 -8.831586 2.802598 -31.611902 6.064696 5.942551 0.693584 -4.215774 -21.007789 0.000000 0.000000 0.000000 -48.766297 25.112806 -25.361229 18.930265 -0.531796 4.979194 -19.373758 -2.261929 -59.539200 
-0.022976 0.897053 -0.197006 -6.758733 11.799958 19.549897 0.000000 0.000000 0.000000 23.481698 -4.899868 -44.269445 -15.787584 3.226885 20.052898 8.714178 27.336976 5.130695 0.000000 0.000000 0.000000 -11.735858 2.271443 -50.529221 12.450588 -3.961360 21.977646 1.810301 -7.680891 12.374615 0.000000 0.000000 0.000000 1.351388 -4.486268 26.281526 2.095829 -0.365930 -0.434740 8.143163 11.237795 3.366843 0.000000 0.000000 0.000000 -10.252105 5.092674 3.251022 0.000000 0.000000 0.000000 34.060194 -8.717916 2.941868 -31.080882 5.787028 5.625047 1.055296 -4.542694 -23.451205 0.000000 0.000000 0.000000 -51.144519 27.357445 -29.316989 16.860919 -0.036524 3.313049 -20.840058 -5.145347 -53.825944 
-0.021200 0.882409 -0.214417 -6.572233 11.796017 22.435077 0.000000 0.000000 0.000000 26.106445 -4.367899 -49.700597 -18.872631 4.254743 21.381578 9.677477 29.659269 5.827821 0.000000 0.000000 0.000000 -14.022263 1.201297 -56.424893 14.392338 -5.014565 24.560343 1.327474 -8.952072 12.404424 0.000000 0.000000 0.000000 0.040614 -4.586159 30.439177 1.391064 -0.262785 -0.855547 8.808599 12.324790 2.761029 0.000000 0.000000 0.000000 -9.523824 4.664239 1.449189 0.000000 0.000000 0.000000 33.482957 -8.582413 3.005338 -30.089066 5.471764 5.428657 1.608975 -4.747191 -25.969959 0.000000 0.000000 0.000000 -53.570892 29.615934 -33.674167 13.931179 0.125701 2.480902 -22.696726 -7.959243 -48.183529 
-0.018890 0.865412 -0.229749 -6.259097 11.808908 25.358536 0.000000 0.000000 0.000000 28.969310 -3.446720 -54.977542 -22.355424 5.459108 22.376294 10.711757 32.062083 6.687926 0.000000 0.000000 0.000000 -16.642552 -0.385576 -62.155567 16.755834 -6.361865 27.064338 0.745455 -10.373816 12.355044 0.000000 0.000000 0.000000 -1.581234 -4.454635 34.846753 0.841187 -0.207498 -1.699648 9.490166 13.433921 2.027203 0.000000 0.000000 0.000000 -8.741971 4.228794 -0.640808 0.000000 0.000000 0.000000 33.020354 -7.921612 3.620564 -29.217997 5.176543 5.190915 1.940405 -5.132130 -28.616920 0.000000 0.000000 0.000000 -56.196122 31.173079 -37.354894 10.881693 0.292675 1.409435 -24.262992 -9.932239 -42.848906 
-0.016232 0.848392 -0.242276 -6.103258 11.791300 27.951860 0.000000 0.000000 0.000000 31.961024 -2.128902 -59.600604 -26.065673 6.790640 23.091683 11.846071 34.388626 7.396966 0.000000 0.000000 0.000000 -18.960734 -2.112067 -67.224794 19.141894 -7.801502 29.268414 0.173856 -11.727976 12.279835 0.000000 0.000000 0.000000 -3.254061 -4.200218 39.559273 0.529478 -0.222153 -3.162585 10.244260 14.656546 1.698372 0.000000 0.000000 0.000000 -8.518386 4.085048 -2.073867 0.000000 0.000000 0.000000 32.584025 -7.433307 4.080359 -28.369271 4.849730 4.785890 2.089776 -5.493127 -30.585283 0.000000 0.000000 0.000000 -59.287747 32.498928 -41.282920 7.601599 0.277258 0.828563 -25.728584 -11.467647 -37.544135 
-0.013153 0.831175 -0.251569 -5.903991 11.810158 29.995300 0.000000 0.000000 0.000000 34.721633 -0.658582 -63.396928 -29.967592 8.228921 23.644294 13.059398 36.536544 7.754323 0.000000 0.000000 0.000000 -21.260240 -4.077040 -71.363104 21.716282 -9.424122 31.258629 -0.353726 -12.860108 12.067003 0.000000 0.000000 0.000000 -4.906902 -3.745945 43.833864 0.344693 -0.244763 -4.264329 10.962901 15.752445 1.604579 0.000000 0.000000 0.000000 -8.160473 3.897052 -3.231317 0.000000 0.000000 0.000000 32.255818 -7.018785 4.497461 -27.609447 4.344838 3.751351 1.957662 -5.822455 -31.481233 0.000000 0.000000 0.000000 -62.107704 33.705507 -45.204962 3.757581 0.083592 0.828836 -26.980455 -12.561118 -32.318935 
-0.009226 0.813350 -0.257089 -5.729043 11.891552 31.692337 0.000000 0.000000 0.000000 37.406993 0.941772 -66.350929 -33.943429 9.603961 23.602246 14.242747 38.511004 8.056505 0.000000 0.000000 0.000000 -23.418646 -6.140917 -74.720586 24.254264 -11.099718 32.988730 -0.890934 -13.922023 11.746987 0.000000 0.000000 0.000000 -6.324356 -3.283356 47.701916 0.123133 -0.253076 -5.082123 11.536652 16.677741 1.371737 0.000000 0.000000 0.000000 -7.713732 3.676523 -4.517551 0.000000 0.000000 0.000000 32.136135 -6.797087 4.764326 -27.076049 3.913573 2.781665 1.966129 -6.003327 -32.227040 0.000000 0.000000 0.000000 -64.943273 34.346776 -48.357671 0.528372 -0.021921 0.387713 -28.093055 -13.359766 -27.352122 
-0.004658 0.797774 -0.259173 -5.512995 12.024380 33.253701 0.000000 0.000000 0.000000 39.706420 2.439998 -68.631611 -37.576496 10.733868 23.060476 15.347142 40.241744 8.255084 0.000000 0.000000 0.000000 -25.293263 -8.133310 -77.444903 26.485761 -12.638355 34.393019 -1.433335 -14.919476 11.337745 0.000000 0.000000 0.000000 -7.431691 -2.929447 51.240264 -0.021436 -0.278124 -6.013753 11.860886 17.424316 1.136066 0.000000 0.000000 0.000000 -7.538275 3.580223 -5.560062 0.000000 0.000000 0.000000 31.745146 -6.784511 4.709460 -26.359857 3.495281 1.934757 2.230867 -5.948023 -32.880969 0.000000 0.000000 0.000000 -67.404734 34.674352 -50.809190 -2.342731 -0.151460 0.074495 -28.850808 -13.792967 -23.579643 
0.000294 0.785466 -0.258799 -5.380642 12.216233 34.696356 0.000000 0.000000 0.000000 41.658841 3.774662 -70.265429 -40.675318 11.526812 22.109196 16.282029 41.637916 8.368302 0.000000 0.000000 0.000000 -26.775023 -9.881503 -79.604376 28.332472 -13.939224 35.410886 -1.947532 -15.817017 10.890873 0.000000 0.000000 0.000000 -8.156727 -2.754670 54.147024 -0.132117 -0.306142 -6.898978 12.020946 17.965506 0.993672 0.000000 0.000000 0.000000 -7.648452 3.606864 -6.296271 0.000000 0.000000 0.000000 31.271576 -7.093314 4.286935 -25.885415 3.224821 1.417032 3.078223 -5.476785 -33.828759 0.000000 0.000000 0.000000 -69.383351 34.977399 -52.942173 -4.799999 -0.317481 0.253902 -29.650708 -14.233716 -20.834153 
